<svg id="Layer_2" data-name="Layer 2" xmlns="http://www.w3.org/2000/svg" viewBox="0 0 109.34 57.46"><defs><style>.cls-1{fill:#fff;}</style></defs><path class="cls-1" d="M39.4,41.27a24.13,24.13,0,0,1,6.38.85,23.69,23.69,0,0,1,5.73,2.43,24.94,24.94,0,0,1,4.87,3.76,23.44,23.44,0,0,1,3.76,4.88A25.14,25.14,0,0,1,62.57,59a23.91,23.91,0,0,1,.86,6.42,23,23,0,0,1-1,6.87A24.27,24.27,0,0,1,49.73,87a21.81,21.81,0,0,1-3.59,1.29c-1.26.34-2.52.62-3.78.85v8.19a1.34,1.34,0,0,1-1.51,1.39H37.67c-.93,0-1.39-.48-1.39-1.45V89.15l-2-.47a8.62,8.62,0,0,1-1.85-.3,11.13,11.13,0,0,1-1.67-.61,24.21,24.21,0,0,1-11.09-8.65,23.89,23.89,0,0,1-4.32-13.78,23.78,23.78,0,0,1,3.28-12.13,24.71,24.71,0,0,1,3.76-4.88,23.43,23.43,0,0,1,4.87-3.77A24.63,24.63,0,0,1,33,42.14,23.4,23.4,0,0,1,39.4,41.27Zm-18,24A17.19,17.19,0,0,0,22,70a18.23,18.23,0,0,0,1.81,4.28,17.65,17.65,0,0,0,2.8,3.64,18,18,0,0,0,3.64,2.8,18.23,18.23,0,0,0,4.28,1.81,17.79,17.79,0,0,0,9.53,0A18,18,0,0,0,56.61,70a17.57,17.57,0,0,0,.65-4.78,17.21,17.21,0,0,0-1.42-7,18,18,0,0,0-9.53-9.53,17.21,17.21,0,0,0-7-1.42,17.57,17.57,0,0,0-4.78.65,18.23,18.23,0,0,0-4.28,1.81,17.91,17.91,0,0,0-6.44,6.42A18,18,0,0,0,22,60.49,17.08,17.08,0,0,0,21.38,65.24Z" transform="translate(-15.33 -41.27)"/><path class="cls-1" d="M72.44,88.68a1.54,1.54,0,0,1-1.09-.44,1.45,1.45,0,0,1-.45-1.07v-3.4a2.17,2.17,0,0,1,.22-.86l30-34.9H73a1.33,1.33,0,0,1-1.52-1.48V43.29c0-.93.51-1.39,1.52-1.39h35a1.47,1.47,0,0,1,1,.4,1.31,1.31,0,0,1,.44,1.05v3.47a2,2,0,0,1-.28,1L79.5,82.57h28.57a1.57,1.57,0,0,1,1,.34,1.44,1.44,0,0,1,.41,1.14v3.12a1.57,1.57,0,0,1-.41,1,1.34,1.34,0,0,1-1,.47Z" transform="translate(-15.33 -41.27)"/><path class="cls-1" d="M124.67,87.29a1.23,1.23,0,0,1-1.39,1.39H120c-1,0-1.45-.46-1.45-1.39V84.05a1.34,1.34,0,0,1,.39-1,1.37,1.37,0,0,1,1-.38h3.25a1.39,1.39,0,0,1,1.07.4,1.37,1.37,0,0,1,.38,1Z" transform="translate(-15.33 -41.27)"/></svg>